<svg xmlns="http://www.w3.org/2000/svg" viewBox="0 0 100 100" width="100" height="100">
  <!-- Shadow -->
  <ellipse cx="50" cy="95" rx="22" ry="4" fill="rgba(0,0,0,0.15)"/>

  <!-- Jar body (glass) -->
  <path d="M25 35 L25 82 Q25 90 35 90 L65 90 Q75 90 75 82 L75 35 Q75 30 70 28 L30 28 Q25 30 25 35 Z" fill="#D4A84B"/>

  <!-- Glass highlight left -->
  <path d="M25 35 L25 82 Q25 90 35 90 L40 90 L40 28 L30 28 Q25 30 25 35 Z" fill="#E8C36B"/>

  <!-- Glass shine -->
  <path d="M30 38 L30 78" stroke="rgba(255,255,255,0.5)" stroke-width="3" fill="none" stroke-linecap="round"/>
  <path d="M34 40 L34 75" stroke="rgba(255,255,255,0.3)" stroke-width="1.5" fill="none" stroke-linecap="round"/>

  <!-- Jar rim/lip -->
  <rect x="28" y="24" width="44" height="6" rx="1" fill="#8B7355"/>
  <rect x="28" y="24" width="22" height="6" rx="1" fill="#A08060"/>

  <!-- Lid top -->
  <rect x="26" y="12" width="48" height="14" rx="3" fill="#1A1A2E"/>
  <rect x="26" y="12" width="24" height="14" rx="3" fill="#2D2D44"/>

  <!-- Lid rim detail -->
  <rect x="28" y="22" width="44" height="3" fill="#333355"/>

  <!-- Lid top highlight -->
  <rect x="32" y="15" width="15" height="3" rx="1" fill="rgba(255,255,255,0.2)"/>

  <!-- Label background -->
  <rect x="30" y="45" width="40" height="32" rx="2" fill="#FDF6E3"/>
  <rect x="31" y="46" width="38" height="30" rx="1.5" fill="#FFFEF9" stroke="#D4A84B" stroke-width="0.5"/>

  <!-- Label decorative border -->
  <rect x="33" y="48" width="34" height="26" rx="1" fill="none" stroke="#B8963F" stroke-width="0.3"/>

  <!-- MUSTARD main text only -->
  <text x="50" y="64" font-family="Georgia, Times, serif" font-size="7" fill="#1A1A2E" text-anchor="middle" font-weight="bold" letter-spacing="0.5">MUSTARD</text>
</svg>